#!OML:ASF E:\I on waltz\AllaLogoMonkeySwing\Project 1\Capture day 1\Session 1\Subject1.ASF
:FULLY-SPECIFIED
:DEGREES
351
root 1.10784 17.7161 20.8011 -2.29805 194.434 2.69077
lowerback 9.04209 2.2246 -2.85274
upperback 0.616252 2.67974 1.42695
thorax -4.63087 1.37264 2.74402
lowerneck -10.3117 -3.73723 -4.49544
upperneck 23.0591 -6.56007 4.69736
head 9.23395 -3.36698 1.57287
rclavicle 5.28022e-015 -3.01159e-014
rhumerus -11.865 8.65969 -72.5209
rradius 85.321
rwrist -12.4598
rhand -10.0666 -29.0448
rfingers 7.12502
rthumb 15.9195 -58.4105
lclavicle 5.28022e-015 -3.01159e-014
lhumerus -52.9207 32.8346 62.5438
lradius 26.342
lwrist -8.9478
lhand -10.2785 -18.5036
lfingers 7.12502
lthumb 15.7155 10.8783
rfemur -6.23362 -3.48667 18.2372
rtibia 22.1977
rfoot -18.3133 -7.02688
rtoes 9.76524
lfemur -4.34294 -3.66302 -17.3338
ltibia 18.4176
lfoot -21.8046 3.3991
ltoes -30.064
352
root 1.10715 17.7209 20.8368 -2.29707 194.425 2.40491
lowerback 8.98405 2.25337 -2.83975
upperback 0.583071 2.71698 1.27751
thorax -4.62751 1.39107 2.5769
lowerneck -10.1493 -3.73894 -4.44694
upperneck 23.118 -6.60811 4.72005
head 9.22543 -3.3931 1.56938
rclavicle -4.19311e-014 -1.19271e-015
rhumerus -11.2435 9.8826 -73.9142
rradius 85.7703
rwrist -12.4144
rhand -10.3319 -28.8412
rfingers 7.12502
rthumb 15.664 -58.2271
lclavicle -4.19311e-014 -1.19271e-015
lhumerus -54.8731 38.1042 56.8531
lradius 22.4354
lwrist -18.0916
lhand -10.1769 -18.0922
lfingers 7.12502
lthumb 15.8133 11.2819
rfemur -6.29179 -3.59604 17.8614
rtibia 22.2553
rfoot -18.6282 -6.89386
rtoes 9.17782
lfemur -4.27574 -3.75269 -17.8111
ltibia 18.3256
lfoot -21.9791 3.86277
ltoes -30.6835
353
root 1.11158 17.7261 20.8639 -2.26485 194.525 1.98682
lowerback 8.85834 2.23262 -3.09208
upperback 0.561901 2.66386 1.1274
thorax -4.57997 1.36972 2.57305
lowerneck -10.0794 -3.68536 -4.33213
upperneck 23.2632 -6.56478 4.62335
head 9.2531 -3.38153 1.52212
rclavicle -7.13761e-015 -4.96962e-016
rhumerus -10.8337 11.3479 -75.3289
rradius 85.8483
rwrist -12.074
rhand -11.097 -28.9416
rfingers 7.12502
rthumb 14.927 -58.3838
lclavicle -7.13761e-015 -4.96962e-016
lhumerus -58.8307 43.5262 49.5788
lradius 19.8065
lwrist -27.6664
lhand -10.281 -17.196
lfingers 7.12502
lthumb 15.7131 12.1861
rfemur -6.23447 -3.69979 17.3751
rtibia 22.2542
rfoot -18.9937 -6.93124
rtoes 9.2192
lfemur -4.2344 -3.92736 -18.4227
ltibia 18.2936
lfoot -22.1888 3.95374
ltoes -30.8893
354
root 1.12022 17.7281 20.8834 -2.24129 194.616 1.73173
lowerback 8.66799 2.17983 -3.38626
upperback 0.535601 2.57328 1.11826
thorax -4.5073 1.33174 2.74658
lowerneck -9.99131 -3.6201 -4.28367
upperneck 23.3506 -6.47231 4.48692
head 9.25566 -3.3552 1.47895
rclavicle -2.62706e-014 -2.98177e-015
rhumerus -10.7099 12.8209 -76.8441
rradius 85.4871
rwrist -11.3676
rhand -11.7793 -29.2244
rfingers 7.12502
rthumb 14.2697 -58.7141
lclavicle -2.62706e-014 -2.98177e-015
lhumerus -63.5175 47.5438 42.9471
lradius 18.5821
lwrist -34.8987
lhand -10.5439 -16.1732
lfingers 7.12502
lthumb 15.4598 13.2286
rfemur -6.16581 -3.68231 17.1294
rtibia 22.2172
rfoot -19.5119 -6.99583
rtoes 9.27669
lfemur -4.21579 -4.11091 -18.7745
ltibia 18.2296
lfoot -22.4376 3.84594
ltoes -30.2826
355
root 1.13121 17.728 20.8986 -2.3772 194.542 1.92027
lowerback 8.53821 2.13022 -3.29051
upperback 0.513225 2.52761 1.24181
thorax -4.45594 1.30871 2.83115
lowerneck -10.0017 -3.58059 -4.24164
upperneck 23.4989 -6.41244 4.33407
head 9.29961 -3.34461 1.4248
rclavicle 2.11333e-014 1.0635e-014
rhumerus -10.883 14.2346 -78.4928
rradius 84.7355
rwrist -10.2842
rhand -11.9891 -29.5722
rfingers 7.12502
rthumb 14.0675 -59.076
lclavicle 2.11333e-014 1.0635e-014
lhumerus -66.1662 49.342 40.0386
lradius 18.4618
lwrist -37.7594
lhand -10.9163 -15.5059
lfingers 7.12502
lthumb 15.1011 13.9233
rfemur -6.08736 -3.48279 17.4421
rtibia 22.1921
rfoot -20.1165 -6.99516
rtoes 9.11982
lfemur -4.09833 -4.1995 -18.5303
ltibia 18.0928
lfoot -22.7224 3.80832
ltoes -29.5689
356
root 1.14409 17.7286 20.9083 -2.61356 194.331 2.27567
lowerback 8.45743 2.07292 -2.98358
upperback 0.520966 2.48705 1.35283
thorax -4.39111 1.2821 2.78195
lowerneck -10.1582 -3.50507 -4.19756
upperneck 23.7007 -6.33485 4.32404
head 9.39408 -3.30817 1.41772
rclavicle -6.95746e-016 -5.56597e-015
rhumerus -11.2104 15.6271 -80.2907
rradius 83.661
rwrist -8.90945
rhand -11.6335 -30.1847
rfingers 7.12502
rthumb 14.4102 -59.6644
lclavicle -6.95746e-016 -5.56597e-015
lhumerus -65.2062 49.124 42.1275
lradius 18.9784
lwrist -35.9043
lhand -11.6323 -15.2416
lfingers 7.12502
lthumb 14.4113 14.2381
rfemur -5.95025 -3.13523 17.9694
rtibia 22.1539
rfoot -20.5798 -6.82451
rtoes 10.1172
lfemur -3.86456 -4.14364 -18.033
ltibia 17.9107
lfoot -22.9742 3.89902
ltoes -29.6369
357
root 1.1577 17.7303 20.9131 -2.88581 194.034 2.55053
lowerback 8.41073 2.04833 -2.75737
upperback 0.556665 2.47785 1.42411
thorax -4.32043 1.27133 2.73211
lowerneck -10.2512 -3.42469 -4.23836
upperneck 23.7962 -6.26605 4.4834
head 9.44838 -3.26548 1.48437
rclavicle 1.22315e-014 -6.16232e-015
rhumerus -11.6981 16.8172 -82.1205
rradius 81.8709
rwrist -6.77936
rhand -10.9949 -29.1273
rfingers 7.12502
rthumb 15.0254 -58.5621
lclavicle 1.22315e-014 -6.16232e-015
lhumerus -61.3702 47.1165 48.1336
lradius 19.8884
lwrist -30.4113
lhand -12.8511 -15.2206
lfingers 7.12502
lthumb 13.2367 14.3392
rfemur -5.73439 -2.73822 18.4048
rtibia 22.1038
rfoot -21.4565 -6.83547
rtoes 8.956
lfemur -3.52874 -4.00158 -17.6152
ltibia 17.7279
lfoot -23.1929 4.09328
ltoes -29.6988
358
root 1.17347 17.7299 20.9142 -3.21378 193.649 2.84472
lowerback 8.41549 2.08018 -2.57647
upperback 0.589919 2.53867 1.52999
thorax -4.28964 1.29671 2.73343
lowerneck -10.1454 -3.381 -4.27032
upperneck 23.7296 -6.22131 4.56322
head 9.40617 -3.2435 1.52464
rclavicle 8.81486e-015 -7.95139e-015
rhumerus -12.5077 17.9009 -83.9276
rradius 80.2302
rwrist -4.42082
rhand -10.317 -29.8103
rfingers 7.12502
rthumb 15.6783 -59.195
lclavicle 8.81486e-015 -7.95139e-015
lhumerus -56.7836 43.7572 55.5351
lradius 21.2462
lwrist -23.2349
lhand -13.9505 -15.4434
lfingers 7.12502
lthumb 12.1769 14.1822
rfemur -5.44581 -2.29749 18.8887
rtibia 22.0438
rfoot -22.1562 -7.04861
rtoes 7.76547
lfemur -3.0732 -3.87275 -17.147
ltibia 17.4724
lfoot -23.4359 4.25394
ltoes -28.9157
359
root 1.1822 17.7304 20.9189 -3.27 193.31 2.72386
lowerback 8.32058 2.07747 -2.68003
upperback 0.563189 2.52762 1.46996
thorax -4.26533 1.29395 2.73294
lowerneck -10.0539 -3.32333 -4.20016
upperneck 23.6706 -6.15541 4.55727
head 9.36222 -3.21145 1.5203
rclavicle -2.06115e-014 6.16232e-015
rhumerus -13.5159 18.7351 -85.7961
rradius 78.4181
rwrist -2.14354
rhand -9.63643 -30.1565
rfingers 7.12502
rthumb 16.3337 -59.4887
lclavicle -2.06115e-014 6.16232e-015
lhumerus -53.0737 40.1267 61.9816
lradius 23.0376
lwrist -16.4955
lhand -14.2831 -15.9218
lfingers 7.12502
lthumb 11.8561 13.7225
rfemur -5.34238 -2.16497 18.8126
rtibia 22.0485
rfoot -22.7526 -7.29367
rtoes 7.44022
lfemur -2.80302 -3.85197 -17.2417
ltibia 17.2162
lfoot -23.6782 4.32772
ltoes -28.0763
360
root 1.17925 17.7363 20.9284 -2.93035 193.061 1.98095
lowerback 8.0352 2.03023 -3.24469
upperback 0.474298 2.41771 1.19951
thorax -4.20221 1.25221 2.7895
lowerneck -10.1746 -3.26107 -4.19694
upperneck 23.7956 -6.09852 4.61635
head 9.42775 -3.18066 1.54312
rclavicle -6.59717e-015 -4.96962e-015
rhumerus -14.6185 19.248 -87.6418
rradius 76.3426
rwrist -0.216576
rhand -8.55442 -29.4829
rfingers 7.12502
rthumb 17.3753 -58.7262
lclavicle -6.59717e-015 -4.96962e-015
lhumerus -50.3567 36.8168 67.101
lradius 25.0717
lwrist -11.1475
lhand -14.0761 -16.5007
lfingers 7.12502
lthumb 12.0557 13.132
rfemur -5.517 -2.43901 17.8945
rtibia 22.1117
rfoot -23.3779 -7.29476
rtoes 7.56898
lfemur -2.86196 -3.9592 -18.2073
ltibia 17.0553
lfoot -23.8586 4.39361
ltoes -27.6609
